<svg width="32" height="32" viewBox="0 0 32 32" xmlns="http://www.w3.org/2000/svg">
    <defs>
      <linearGradient id="gradient" x1="0%" y1="0%" x2="100%" y2="100%">
        <stop offset="0%" style="stop-color:#3b82f6;stop-opacity:1" />
        <stop offset="100%" style="stop-color:#8b5cf6;stop-opacity:1" />
      </linearGradient>
    </defs>
    
    <!-- Arrière-plan circulaire -->
    <circle cx="16" cy="16" r="14" fill="url(#gradient)" />
    
    <!-- Icône de ton/message -->
    <g transform="translate(6.4, 6.4) scale(0.7999999999999999)">
      <!-- Bulle de message -->
      <path d="M20 2H4c-1.1 0-2 .9-2 2v12c0 1.1.9 2 2 2h4l4 4 4-4h4c1.1 0 2-.9 2-2V4c0-1.1-.9-2-2-2z" 
            fill="white" opacity="0.9"/>
      
      <!-- Lignes de texte stylisées -->
      <rect x="6" y="6" width="8" height="1.5" rx="0.75" fill="white" opacity="0.8"/>
      <rect x="6" y="9" width="12" height="1.5" rx="0.75" fill="white" opacity="0.8"/>
      <rect x="6" y="12" width="6" height="1.5" rx="0.75" fill="white" opacity="0.8"/>
      
      <!-- Point d'amélioration -->
      <circle cx="18" cy="6" r="2" fill="#fbbf24"/>
      <text x="18" y="7.5" text-anchor="middle" font-size="2.5" font-weight="bold" fill="white">!</text>
    </g>
  </svg>